# xmcd
# 
# Track frame offsets:
#     182
#     14612
#     24690
#     27660
#     37030
#     42677
#     52825
#     53690
#     63562
#     68995
#     78745
#     87340
#     110522
#     120902
#     122410
#     133480
# 
# Disc length: 1892
# 
# Revision: 9
# Processed by: cddbd v1.5.2PL0 Copyright (c) Steve Scherf et al.
# Submitted via: fre:ac v1.0.17
# 
DISCID=e8076210
DTITLE=Vincent Malone - Le Roi des Papa
DYEAR=1991
DGENRE=
TTITLE0=Bad Bili
TTITLE1=Les moustiques
TTITLE2=L'escargot malheureux
TTITLE3=L'ours qui pète et qui Rote
TTITLE4=Cetenkiki
TTITLE5=La patouille
TTITLE6=Au clair de la Lune
TTITLE7=Le conte mélangé
TTITLE8=La ferme
TTITLE9=Moi j'aime
TTITLE10=La baleine à Fleurs
TTITLE11=La chasse au Boa
TTITLE12=Balalaio
TTITLE13=Dans ton lit
TTITLE14=Les fantomes
TTITLE15=Le Roi des Papas
EXTD=YEAR: 1991
EXTT0=
EXTT1=
EXTT2=
EXTT3=
EXTT4=
EXTT5=
EXTT6=
EXTT7=
EXTT8=
EXTT9=
EXTT10=
EXTT11=
EXTT12=
EXTT13=
EXTT14=
EXTT15=
PLAYORDER=
